{"title":"V H S 2012 HDRip XVID-iMaN","uid":7507247,"size":1807312625,"categoryP":"video","categoryS":"movies","magnet":"?xt=urn:btih:0cf8ca166f04bb7094e7a5a4f814ec09a9ba1d07&amp;dn=V+H+S+2012+HDRip+XVID-iMaN&amp;tr=udp%3A%2F%2Ftracker.openbittorrent.com%3A80&amp;tr=udp%3A%2F%2Fopen.demonii.com%3A1337&amp;tr=udp%3A%2F%2Ftracker.coppersurfer.tk%3A6969&amp;tr=udp%3A%2F%2Fexodus.desync.com%3A6969","seeders":1,"leechers":0,"uploader":"Hackulus","files":-1,"time":1344216168,"description":"\n\n\nV/H/S 2012 VODRip XVID HS\n &lt;a href=&quot;\nhttp://www.imdb.com/title/tt2105044/&quot; rel=&quot;nofollow&quot; target=&quot;_NEW&quot;&gt;\nhttp://www.imdb.com/title/tt2105044/&lt;/a&gt;\n\nFormat                                   : AVI\nFormat/Info                              : Audio Video Interleave\nFormat profile                           : OpenDML\nFile size                                : 1.68 GiB\nDuration                                 : 1h 56mn\nOverall bit rate                         : 2 070 Kbps\nWriting application                      : Lavf52.103.0\n\nVideo\nID                                       : 1\nFormat                                   : MPEG-4 Visual\nFormat profile                           : Simple@L1\nFormat settings, BVOP                    : No\nFormat settings, QPel                    : No\nFormat settings, GMC                     : No warppoints\nFormat settings, Matrix                  : Default (H.263)\nCodec ID                                 : XVID\nDuration                                 : 1h 56mn\nBit rate                                 : 1 929 Kbps\nWidth                                    : 640 pixels\nHeight                                   : 364 pixels\nDisplay aspect ratio                     : 16:9\nFrame rate                               : 23.976 fps\nColor space                              : YUV\nChroma subsampling                       : 4:2:0\nBit depth                                : 8 bits\nScan type                                : Progressive\nCompression mode                         : Lossy\nBits/(Pixel*Frame)                       : 0.345\nStream size                              : 1.57 GiB (93%)\nWriting library                          : Lavc52.116.0\n\nAudio\nID                                       : 0\nFormat                                   : MPEG Audio\nFormat version                           : Version 1\nFormat profile                           : Layer 3\nMode                                     : Joint stereo\nMode extension                           : MS Stereo\nCodec ID                                 : 55\nCodec ID/Hint                            : MP3\nDuration                                 : 1h 56mn\nBit rate mode                            : Constant\nBit rate                                 : 128 Kbps\nChannel(s)                               : 2 channels\nSampling rate                            : 44.1 KHz\nCompression mode                         : Lossy\nStream size                              : 107 MiB (6%)\nAlignment                                : Aligned on interleaves\nInterleave, duration                     : 42 ms (1.00 video frame)\nWriting library                          : LAME3.98.4\n\n","torrent":{"xt":"urn:btih:0cf8ca166f04bb7094e7a5a4f814ec09a9ba1d07","amp;dn":"V+H+S+2012+HDRip+XVID-iMaN","amp;tr":["udp%3A%2F%2Ftracker.openbittorrent.com%3A80","udp%3A%2F%2Fopen.demonii.com%3A1337","udp%3A%2F%2Ftracker.coppersurfer.tk%3A6969","udp%3A%2F%2Fexodus.desync.com%3A6969"],"infoHash":"0cf8ca166f04bb7094e7a5a4f814ec09a9ba1d07","infoHashBuffer":{"type":"Buffer","data":[12,248,202,22,111,4,187,112,148,231,165,164,248,20,236,9,169,186,29,7]},"announce":[],"urlList":[]}}